<svg id="Group_9011" data-name="Group 9011" xmlns="http://www.w3.org/2000/svg" width="143.104" height="145.956" viewBox="0 0 143.104 145.956">
  <g id="Group_9005" data-name="Group 9005" transform="translate(54.953 51.2)">
    <g id="Group_9004" data-name="Group 9004">
      <path id="Path_33326" data-name="Path 33326" d="M102.26,112.263l-3.678-1.055a14.19,14.19,0,0,1-6.007-3.276c-1.553-1.481-3.375-5.673-3.375-5.673s9.106,2.089,10.949,3.2a14.23,14.23,0,0,0,7.378,1.662q5.354,0,8.141-1.789c1.857-1.193,2.787-7.032,2.787-7.032a4.964,4.964,0,0,0-1.415-3.659c-.944-.948-7.19-3.329-9.6-3.883,0-.022-.044-.043-.131-.065a.519.519,0,0,1-.173-.064,3.894,3.894,0,0,1-.522-.143,2.069,2.069,0,0,0-.479-.112c-3.4-.788-11.907-4.2-13.343-5.769a8.835,8.835,0,0,1-2.155-6.216s-3.032-8.875,8.12-12.161a30.457,30.457,0,0,1,9.86-1.391,27.446,27.446,0,0,1,7.792.975,12.769,12.769,0,0,1,5.354,3.005c1.393,1.353,3.179,5.225,3.179,5.225s-8.737-1.694-10.275-2.653a11.308,11.308,0,0,0-6.05-1.438q-5.182,0-7.879,1.742c-1.8,1.161-2.7,6.5-2.7,6.5a4.684,4.684,0,0,0,1.546,3.659,11.145,11.145,0,0,0,3.83,2.19q2.286.8,6.335,1.758c.173.02.34.042.5.064a2.022,2.022,0,0,1,.414.1c.116.022.247.048.392.08a3.2,3.2,0,0,1,.392.112,49.829,49.829,0,0,1,7.466,2.286,12.829,12.829,0,0,1,4.985,3.6,9.268,9.268,0,0,1,2,6.2v1.821a10.825,10.825,0,0,1-2.068,6.728,12.412,12.412,0,0,1-6.225,4.107,32.37,32.37,0,0,1-10.079,1.373Zm2.22-52.605,6.11,1.843,1.117,55.94-5.993-1.736Z" transform="translate(-89.2 -59.658)" fill="#00a7e1"/>
    </g>
  </g>
  <path id="Path_33327" data-name="Path 33327" d="M108.347,38.671,108.3,50.447l-3.243-.151s-1.464-8.183,0-11.626Z" transform="translate(-33.074 -10.077)" fill="#00a7e1"/>
  <path id="Path_33328" data-name="Path 33328" d="M106.377,12.125l-.024,22.117-1.622-.284s-.731-15.369,0-21.833Z" transform="translate(-33.074 -12.125)" fill="#00a7e1"/>
  <path id="Path_33329" data-name="Path 33329" d="M110.7,20.517l-.024,13.078-1.621-.168s-.732-9.088,0-12.91Z" transform="translate(-32.74 -11.478)" fill="#00a7e1"/>
  <path id="Path_33330" data-name="Path 33330" d="M124.322,38.671l-.047,22.606-3.243-.291s-1.464-15.708,0-22.315Z" transform="translate(-31.841 -10.077)" fill="#00a7e1"/>
  <path id="Path_33331" data-name="Path 33331" d="M90.248,38.671,90.2,61.277l-3.243-.291s-1.464-15.708,0-22.315Z" transform="translate(-34.47 -10.077)" fill="#00a7e1"/>
  <path id="Path_33332" data-name="Path 33332" d="M87.371,138.786l.047-8.522,3.243.11s1.464,5.922,0,8.412Z" transform="translate(-34.388 -3.012)" fill="#00a7e1"/>
  <path id="Path_33333" data-name="Path 33333" d="M87.371,127.116l.047-15.458,3.243.2s1.464,10.742,0,15.26Z" transform="translate(-34.388 -4.447)" fill="#00a7e1"/>
  <path id="Path_33334" data-name="Path 33334" d="M124.322,117.19l-.047,22.6-3.243-.291s-1.464-15.708,0-22.314Z" transform="translate(-31.841 -4.02)" fill="#00a7e1"/>
  <path id="Path_33335" data-name="Path 33335" d="M108.852,121.658,108.8,139.45l-3.243-.228s-1.464-12.363,0-17.564Z" transform="translate(-33.035 -3.676)" fill="#00a7e1"/>
  <g id="Group_9006" data-name="Group 9006" transform="translate(40.886 20.148)">
    <path id="Path_33336" data-name="Path 33336" d="M129.063,33.321c-.311-.107-.629-.178-.944-.266a20,20,0,0,0-6.656-.657c-2.469-.375-4.93-1.021-7.438-.143a23.182,23.182,0,0,0-3.486-.471,124.745,124.745,0,0,0-16.447-.567c-3.8-.644-7.6-.34-11.436-.124-2.238.127-2.756.752-2.317,2.28q-.553.283-.144.692c-1.552,3.654-1.164,7.418-1.02,11.168h0c-.053,3.2-.253,6.412-.134,9.613a377.331,377.331,0,0,1-2.652,59.326c-.154,5.435-.251,40.7-.251,40.7l60.336,1.5s-.12-3.329.092-9.5c1.014-29.651.257-59.337,2.818-88.96.675-7.817,1.607-15.619,2.421-23.428C137.95,31.454,133.34,33.509,129.063,33.321ZM126.9,153.972h-.1a1.65,1.65,0,0,0,.1-.144Zm7.349-2.338H83.142s-.633-102.445,0-115.872c.319-.022,51.111,0,51.111,0Z" transform="translate(-76.14 -30.83)" fill="#00a7e1"/>
  </g>
  <g id="Group_9007" data-name="Group 9007" transform="translate(0 66.96)">
    <path id="Path_33337" data-name="Path 33337" d="M82.57,150.706l.809-66.9a23.806,23.806,0,0,0-6.292,1.586c-.141-.837-1.912.082-2.508-.116-8.9-2.956-18.129-1.915-27.237-2.26-2.272-.086-2.818,1.6-2.885,3.782a182.058,182.058,0,0,0,.467,20.515c.917,11.2-.589,22.4.023,33.592.178,3.269,1.2,6.959-4.237,6.38a1.172,1.172,0,0,0-1.437,1.01c-.054,1.134.908,1.1,1.628,1.192.9.12,1.975,1.191,2.886,1.216ZM64.137,146.84c-4.8.3-9.617.176-14.424.341-1.8.062-2.513-.493-2.553-2.43-.164-8.032-.413-16.047-.257-24.1.2-10.643-.477-21.308-.884-31.959-.09-2.388.435-4.03,3.089-3.677,8.341,1.107,16.86.124,25.11,2.231.142.146.285.291.432.432a5.316,5.316,0,0,0,.967.777,2.9,2.9,0,0,0,1.049.39c3.145,2.741,3.014,6.389,2.8,10.107a349.258,349.258,0,0,0-.283,34.982l0,.234q-.069,5.6-.141,11.2l-.005.465C74.12,146.967,69.1,146.53,64.137,146.84Z" transform="translate(-38.098 -73.616)" fill="#00a7e1"/>
    <path id="Path_33338" data-name="Path 33338" d="M52.351,94.83c4.9.46,9.711-.411,14.6-.35,4.772.059,5.579-.6,4.188-3.148.121-1.114-1.182-.947-2.373-.88l-6.239.015c-3.307.095-6.625.128-9.918.312-1.51.085-2.4.59-.958,1.463C52.079,93.086,51.271,94.044,52.351,94.83Z" transform="translate(-37.2 -73.047)" fill="#00a7e1"/>
    <path id="Path_33339" data-name="Path 33339" d="M52.351,104.6c4.9.46,9.711-.41,14.6-.349,4.772.059,5.579-.6,4.188-3.148.121-1.115-1.182-.947-2.373-.88l-6.239.015c-3.307.095-6.625.127-9.918.312-1.51.085-2.4.59-.958,1.462C52.079,102.855,51.271,103.813,52.351,104.6Z" transform="translate(-37.2 -72.293)" fill="#00a7e1"/>
    <path id="Path_33340" data-name="Path 33340" d="M52.351,114.367c4.9.46,9.711-.411,14.6-.35,4.772.06,5.579-.6,4.188-3.147.121-1.115-1.182-.947-2.373-.88L62.522,110c-3.307.1-6.625.128-9.918.313-1.51.084-2.4.59-.958,1.462C52.079,112.623,51.271,113.581,52.351,114.367Z" transform="translate(-37.2 -71.54)" fill="#00a7e1"/>
    <path id="Path_33341" data-name="Path 33341" d="M52.351,124.136c4.9.46,9.711-.411,14.6-.35,4.772.06,5.579-.6,4.188-3.148.121-1.114-1.182-.946-2.373-.88l-6.239.015c-3.307.095-6.625.128-9.918.312-1.51.085-2.4.59-.958,1.463C52.079,122.392,51.271,123.35,52.351,124.136Z" transform="translate(-37.2 -70.786)" fill="#00a7e1"/>
    <path id="Path_33342" data-name="Path 33342" d="M83.464,76.211C79.4,76.222,47.918,73.9,41.48,74.346c-2.951.2-4.686,1.415-1.872,3.506.042.1.14-.675.166-.566,1.025,4.431,4.491,7.858,9.036,8.024,11.433.418,27.367,1.139,34.654,1.063C85.376,86.354,85.792,76.051,83.464,76.211ZM81.332,84.9c-8.137.074-28.025-.914-36.2-1.748-1.8-1.424-.452-3.159-1.174-4.691-2.4-1.579-.92-2.5,1.6-2.649,5.486-.335,32.311,1.418,35.775,1.409C83.316,77.1,82.962,84.883,81.332,84.9Z" transform="translate(-38.182 -74.29)" fill="#00a7e1"/>
  </g>
  <g id="Group_9008" data-name="Group 9008" transform="translate(98.996 69.893)">
    <path id="Path_33343" data-name="Path 33343" d="M170.985,149.8c.91-.025,1.985-1.081,2.886-1.2.72-.1,1.681-.057,1.628-1.176-.041-.844-.866-1.056-1.437-1-5.44.571-4.415-3.07-4.237-6.295.612-11.046-.894-22.1.023-33.144a177.228,177.228,0,0,0,.467-20.241c-.068-2.152-.613-3.816-2.885-3.731-9.107.34-23.68-.09-32.579,2.825-.595.2-2.366-.712-2.508.115-1.41-.523.829-2.149-.95-2.162l.81,66ZM135.744,145l-.005-.459q-.071-5.524-.141-11.049c0-.078,0-.154,0-.231a339.992,339.992,0,0,0-.283-34.515c-.218-3.669-5.692-6.671-2.546-9.375a2.942,2.942,0,0,0,1.049-.385,5.348,5.348,0,0,0,.968-.767c.145-.139.289-.282.431-.427,8.25-2.08,22.112-1.706,30.452-2.8,2.654-.348,3.181,1.272,3.09,3.628-.408,10.509-1.089,21.031-.884,31.532.155,7.943-.094,15.851-.257,23.776-.04,1.911-.756,2.459-2.553,2.4-4.807-.163-9.627-.041-14.425-.336C145.672,145.682,140.653,146.113,135.744,145Z" transform="translate(-131.393 -73.739)" fill="#00a7e1"/>
    <path id="Path_33344" data-name="Path 33344" d="M161.459,92.242c1.439-.872.553-1.378-.958-1.463-3.293-.184-6.611-.218-9.919-.312l-6.238-.015c-1.191-.067-2.495-.234-2.373.88-1.391,2.552-.584,3.208,4.188,3.148,4.883-.061,9.691.81,14.6.35C161.834,94.044,161.026,93.086,161.459,92.242Z" transform="translate(-130.624 -73.169)" fill="#00a7e1"/>
    <path id="Path_33345" data-name="Path 33345" d="M160.819,76.243c1.439-.871.553-1.377-.958-1.462-3.293-.185-6.612-.218-9.919-.313l-6.238-.014c-1.191-.067-2.495-.235-2.373.88-1.391,2.552-.584,3.208,4.188,3.147,4.884-.06,9.691.81,14.6.35C161.194,78.045,160.386,77.087,160.819,76.243Z" transform="translate(-130.674 -74.403)" fill="#00a7e1"/>
    <path id="Path_33346" data-name="Path 33346" d="M161.459,102.01c1.439-.871.553-1.377-.958-1.462-3.293-.185-6.611-.218-9.919-.312l-6.238-.015c-1.191-.067-2.495-.235-2.373.88-1.391,2.552-.584,3.208,4.188,3.148,4.883-.061,9.691.809,14.6.349C161.834,103.813,161.026,102.855,161.459,102.01Z" transform="translate(-130.624 -72.416)" fill="#00a7e1"/>
    <path id="Path_33347" data-name="Path 33347" d="M161.459,111.779c1.439-.871.553-1.378-.958-1.462-3.293-.185-6.611-.218-9.919-.313l-6.238-.014c-1.191-.067-2.495-.235-2.373.88-1.391,2.552-.584,3.208,4.188,3.147,4.883-.061,9.691.81,14.6.35C161.834,113.581,161.026,112.623,161.459,111.779Z" transform="translate(-130.624 -71.662)" fill="#00a7e1"/>
    <path id="Path_33348" data-name="Path 33348" d="M161.459,121.548c1.439-.872.553-1.378-.958-1.463-3.293-.184-6.611-.218-9.919-.312l-6.238-.015c-1.191-.066-2.495-.234-2.373.88-1.391,2.553-.584,3.209,4.188,3.148,4.883-.061,9.691.81,14.6.35C161.834,123.35,161.026,122.392,161.459,121.548Z" transform="translate(-130.624 -70.909)" fill="#00a7e1"/>
    <path id="Path_33349" data-name="Path 33349" d="M150.643,131.646c-1.631-.947-2.577-.363-2.735.63-.346,2.166-.407,4.349-.585,6.525q-.015,2.054-.028,4.1c-.124.783-.437,1.64,1.646,1.561,4.774.914,6,.385,5.889-2.755-.114-3.212,1.516-6.376.655-9.6C154.015,131.4,152.224,131.932,150.643,131.646Z" transform="translate(-130.173 -70.025)" fill="#00a7e1"/>
  </g>
  <g id="Group_9009" data-name="Group 9009" transform="translate(101.576 45.668)">
    <path id="Path_33350" data-name="Path 33350" d="M156.737,70.926c-1.648,0-3.63.055-4.833,0-.853-.04-2.44-1.7-3.438-3.411a4.813,4.813,0,0,1-.525-2.147l-1.37-6.628a1.309,1.309,0,0,0-1.45-1.033l-11.38,1.477a1.077,1.077,0,0,1-.362-2.124l14.768-2.522a1.075,1.075,0,0,1,1.255.986l.612,8.708a3.079,3.079,0,0,0,.238,1.214c.278.476,1.027.727,2.354.788,4.683.215,13.974,1.092,18.781-.123a1.078,1.078,0,0,1,.528,2.09C168.142,69.152,161.668,70.926,156.737,70.926Z" transform="translate(-132.483 -54.522)" fill="#00a7e1"/>
  </g>
  <g id="Group_9010" data-name="Group 9010" transform="translate(134.546 57.898)">
    <path id="Path_33351" data-name="Path 33351" d="M165.54,90.767a1.077,1.077,0,0,1-1.042-.806c-2.188-8.4-1.105-14.516-.052-23.137a1.076,1.076,0,1,1,2.137.261c-1.011,8.294-2.1,14.252,0,22.334a1.076,1.076,0,0,1-1.044,1.349Z" transform="translate(-163.228 -65.876)" fill="#00a7e1"/>
  </g>
</svg>
