<?xml version="1.0" encoding="utf-8"?>
<!-- Generator: Adobe Illustrator 22.0.1, SVG Export Plug-In . SVG Version: 6.00 Build 0)  -->
<svg version="1.1" id="Layer_1" xmlns="http://www.w3.org/2000/svg" xmlns:xlink="http://www.w3.org/1999/xlink" x="0px" y="0px"
	 viewBox="0 0 356.6 366.1" style="enable-background:new 0 0 356.6 366.1;" xml:space="preserve">
<style type="text/css">
	.st0{fill:#202227;}
	.st1{fill:none;stroke:#202227;stroke-width:5;stroke-linecap:round;stroke-linejoin:round;}
	.st2{fill:#202227;stroke:#202227;}
	.st3{fill:none;stroke:#202227;stroke-width:3;stroke-linecap:round;}
	.st4{fill:none;stroke:#202227;stroke-width:5;stroke-linecap:round;}
</style>
<g id="Group_5861" transform="translate(9.718 -53.658)">
	<g id="Group_576" transform="translate(0 53.658)">
		<path id="Subtraction_5" class="st0" d="M263.4,130.5c0.5,0,0.8-0.2,0.8-0.7c0.1-1.4,3.2-5,8.8-11.4l0,0l0,0
			c7.2-8.3,18.1-20.8,32.6-40c4.9-6.5,8.3-12.6,10.3-18.1c1.6-4.4,2.2-9.1,1.6-13.7c-0.8-4.9-3.1-9.4-6.6-13c-3-3.1-6.3-5.8-9.9-8.2
			h0l0,0l-0.1-0.1c-0.7-0.5-1.3-0.9-1.9-1.3c-3.4-2.3-7.2-4.1-11.1-5.5c-4.3-1.7-9.6-3.3-15.3-4.9c-10.3-2.8-21-4.9-25.8-5.1
			c-3.2-0.1-7.2-1.5-11.8-3.1C228.1,3,219.5,0,209.8,0c-3.1,0-6.1,0.3-9.1,0.9c-4,0.8-6.4,2.6-7.1,5.2c-0.6,2.1-0.2,4.7,1.1,7.8
			c1.4,3,3.1,5.8,5.1,8.4c2.5,3.3,5.3,6.5,8.2,9.4l0,0c2.4,0.4,4.7,1,7,1.8c1.8,0.6,3.4,1.5,4.9,2.6c1.4,0.9,2.3,2.3,2.5,3.9
			c0.4,2.1,1.1,4,2.3,5.8c1.5,2.4,3.2,4.6,5.1,6.7c2,2.1,4.3,4,6.7,5.5c2.1,1.4,4.6,2.2,7.1,2.3c0.1,0,0.2,0,0.3,0h0h0.2
			c1.2,0,2.3,0.5,3.1,1.4c0.8,1.1,1.4,2.3,1.7,3.6c0.7,3.5,1,7.1,0.9,10.7v0c0.1,5.1,0.2,9.9,1.9,11.8c0.6,0.8,1.5,1.2,2.5,1.2
			c1.5-0.2,3-0.7,4.3-1.5h0l0.3-0.2c1.6-0.9,3.4-1.5,5.3-1.7c1.7,0,3.4,0.8,4.6,2c1,0.8,1.6,2,1.7,3.3c0,2.4-2.4,4.7-5.4,7.7l0,0h0
			c-3.2,3.2-7.3,7.1-9.6,12.5c-1.1,2.4-1.5,5.1-1.1,7.7c0.3,2.2,1.1,4.3,2.3,6.1C258.9,128.4,261.9,130.5,263.4,130.5z M303,33.1
			c0.2,0,0.5,0.1,0.7,0.2c4.6,2.3,8,6.4,9.4,11.3c1.1,4.5,1,9.3-0.3,13.7c-1.2,4.5-3,8.7-5.3,12.7c-2.1,3.5-3.9,5.4-4.5,5.4
			c0,0-0.1,0-0.1,0c-0.6-0.3,0-2.4,0.9-5.6v0c1.3-4.2,2.3-8.6,2.9-12.9c0.3-2.5,0.3-5.1,0.1-7.6c-0.2-2.6-0.9-5.2-1.9-7.6
			c-1.6-3.8-3.2-8-3.4-8.4C301.8,33.5,302.4,33.1,303,33.1z M275.2,17.3c1.4,0.1,2.8,0.5,3.9,1.3c5.3,3.3,10.9,6.2,16.7,8.7
			c1.3,0.5,1.9,0.9,1.8,1.2c0,0.2-0.4,0.3-1.1,0.3c-0.8,0-1.6-0.1-2.4-0.2c-5.4-2.5-10.9-4.6-16.6-6.4c-2.4-0.7-4.6-2-4.4-3.6
			C273.2,17.8,274.1,17.3,275.2,17.3z M204.5,2.7L204.5,2.7c-0.4,0.2-4.2,2-5.8,4.4c-1,1.7-1.3,3.6-0.8,5.5l0,0
			c-0.4-0.3-0.7-0.7-0.9-1.2c-0.6-1.2-0.7-2.5-0.5-3.8c0.1-1,1-2.5,4.2-3.8C201.9,3.4,203.2,3,204.5,2.7L204.5,2.7z"/>
		<path id="Path_2279" class="st1" d="M208.5,24.9c0,0-6.3,18.7-7.7,25.3s-17.1,19.7-20.3,27.4S188,81,188,81s-2.1,26.7-5.1,38.4
			s1.8,20.1,13.6,12.3s12.8,9,12.5,14.4s2.8,19.9,14.8,22.5s24.1,2.1,34.2-3.5s4.1-20.1,3.9-27.3"/>
		<path id="Path_2280" class="st0" d="M204.1,219.2c-3.9-0.1-22.5-2.1-31.8-3.2s-8.1,6.8-4.8,9.8s10.8,6,15.6,8
			c4.2,1.8,13.2-1,20.8-2.3c0.2-0.3,0.3-0.7,0.2-1C203.1,226.6,204.1,219.2,204.1,219.2z"/>
		<g id="Group_575" transform="translate(211.692 79.869) rotate(-161)">
			<path id="Path_721" class="st0" d="M9.7,4.4c0-2.5,1-4.4,2.1-4.4S14,1.9,14,4.4s-1,4.4-2.1,4.4C10.7,8.8,9.8,6.9,9.7,4.4"/>
			<path id="Path_722" class="st0" d="M3,12.9L3,12.9c-0.8,0.1-1.3,0.9-1.2,1.7c2,8.6,9.3,9.7,12.7,9c0.7-0.1,1.2-0.8,1.1-1.5
				c-0.1-0.7-0.7-1.2-1.4-1.1c0,0-0.1,0-0.1,0c-4.6,0.8-8.9-2.3-9.7-6.9C4.3,13.3,3.7,12.9,3,12.9"/>
		</g>
		<path id="Subtraction_6" class="st2" d="M192.2,141.5L192.2,141.5c3.2-0.1,6.4-0.8,9.3-2.1c2.5-1.1,5-2.3,7.3-3.7l0,0
			c0.6-0.4,1.2-0.7,1.6-0.9c2.4-1.1,4.9-2,7.4-2.8c8.8-3.1,22-7.7,25-12.7c4.1-6.9,14.9-32.6,15-32.8l-6.5-17.1
			c-0.5,1.2-2.9,4.9-12,15.7c-4.4,5.2-11.1,7.9-19.9,7.9c-3.8,0-7.6-0.4-11.3-1.2c-3.4-0.7-6.8-1.6-10.1-2.7c-3.4-1.1-6.7-2.4-10-4
			c0,0.2-2.7,24.2-4,28.7c-0.2,0.8-0.7,2-1.2,3.3c-2.4,6-6.3,16,1.2,21.8C186.4,140.6,189.3,141.6,192.2,141.5z M205.2,101.6
			c0.3,0,0.5,0.1,0.7,0.3c0.4,0.5,0.4,1.2,0,1.6c-1.4,1.8-3.3,3.3-5.4,4.4c-1.7,0.9-3.5,1.3-5.4,1.4c-0.3,0-0.6,0-0.8,0
			c-2.2-0.3-4.3-1.1-6.2-2.3c-0.1-0.1-0.2-0.1-0.4-0.2c-0.5-0.4-0.9-0.9-0.6-1.6c0.2-0.4,0.5-0.6,0.9-0.6c0.3,0,0.6,0.1,0.8,0.2
			l0.1,0h0c2,1.1,4.2,1.7,6.5,1.7c3.5,0,6.7-1.7,8.7-4.5C204.5,101.7,204.8,101.6,205.2,101.6z"/>
		<path id="Path_2285" class="st3" d="M263.8,127.6c0,0-2.1,6.8-2.1,8.7"/>
		<path id="Path_2286" class="st4" d="M261.9,140.6c0,0,44.1,11.8,75.1,72.9c9.2,20.7,7.9,69.5,6.2,86.5"/>
		<path id="Path_2287" class="st4" d="M207.1,149.5c0,0-52,11.5-48.8,61.5"/>
		<g id="Group_5862" transform="translate(261.671 320.289) rotate(155)">
			<g id="Group_574" transform="matrix(-0.921, 0.391, -0.391, -0.921, 177.303, 255.498)">
				<path id="Path_907" class="st3" d="M43,45.9c0,0,9.4-10,14.5-11.7"/>
				<path id="Path_908" class="st3" d="M35,43.5c0,0,15.2-22.3,25.6-29.7"/>
				<path id="Path_909" class="st3" d="M26.4,37.7c0,0,20.5-31,29.1-34.6"/>
				<path id="Path_910" class="st3" d="M65.3,29.4c0.5,0.9,2.8,9.3-2.8,12.9S39.1,53.5,39.5,73.8c0.1,5.8,1,17.8,1.7,27.6"/>
				<path id="Path_911" class="st3" d="M40.9,0c0,0-29.3,30.7-34.5,69C4.8,80.8,2.3,94.8,0,109.8"/>
			</g>
			<path id="Path_2288" class="st4" d="M0,54.2c0,0,36.3,16.6,54,40.3c21.3,28.6,42.7,76.2,41.1,94.2"/>
			<path id="Path_2289" class="st0" d="M94.1,184.3c5.6-6.3,14.3-44.5,43.5-37c12.8,3.3,12,16.9,0,19.7c-0.3-2.2-9.6-2.9-23.9,5.2
				c-6.8,3.8-16.6,18.7-16.6,18.7S88.6,190.6,94.1,184.3z"/>
			<path id="Path_2290" class="st4" d="M130.6,141c0,0-11.5-132.3-120.6-141"/>
		</g>
		<path id="Path_2294" class="st4" d="M147,320.3c-9.5,38.9-16.4,42.4-16.4,42.4"/>
	</g>
</g>
</svg>
