<svg xmlns="http://www.w3.org/2000/svg" width="267.104" height="208.871" viewBox="0 0 267.104 208.871">
  <g id="Group_5857" data-name="Group 5857" transform="translate(2.5 2.5)">
    <path id="Path_13154" data-name="Path 13154" d="M-18904.516,8842c-2.883,2.731-180.494,18.888-180.494,18.888s24.744,151.918,59.545,185.158c.557,3.391,202.559-7.331,202.559-7.331S-18903.437,8880.521-18904.516,8842Z" transform="translate(19085.01 -8842)" fill="none" stroke="#fff" stroke-linecap="round" stroke-linejoin="round" stroke-width="5"/>
    <path id="Path_13155" data-name="Path 13155" d="M-19019.68,8901.86l145.617-19.28,55.9,138.839s-142.605,13.55-145.643,12.807S-19019.68,8901.86-19019.68,8901.86Z" transform="translate(19041.963 -8858.788)" fill="none"/>
    <path id="Path_13156" data-name="Path 13156" d="M-18891.088,8959.9l-67.535,8.781s.613-31.585,33.6-35.863S-18891.088,8959.9-18891.088,8959.9Z" transform="translate(19079.092 -8879.407)" fill="#fff"/>
    <path id="Subtraction_7" data-name="Subtraction 7" d="M127.063,0,112.138.892a1.467,1.467,0,1,1-1.165.069l-9.292.555a1.468,1.468,0,1,1-1.356.081L58.651,4.087a1.466,1.466,0,1,1-2.034.122l-6.961.416a1.47,1.47,0,0,1-2.6.155l-4.036.241a1.466,1.466,0,1,1-1.289.077l-7.529.45a1.468,1.468,0,0,1-2.14.128L11.046,6.931a1.465,1.465,0,1,1-1.815.108L0,7.591l17.308,8.959a1.465,1.465,0,0,1,2.528,1.309l11.215,5.805a1.464,1.464,0,1,1,2.5,1.3l3.185,1.649a1.462,1.462,0,0,1,.95.492l10.553,5.463a1.467,1.467,0,0,1,2.6,1.344L65.71,41.6A1.467,1.467,0,1,1,68.3,42.945l1.354.7a1.474,1.474,0,0,1,.352-.043,1.459,1.459,0,0,1,1.368.933l12.067,6.246a1.442,1.442,0,0,1,.637-.146,1.461,1.461,0,0,1,1.447,1.225l8.01,4.146a1.465,1.465,0,1,1,1.1.5,1.528,1.528,0,0,1-.157-.008l3.411,1.766a1.465,1.465,0,1,1,2.5,1.3l11.658,6.035a1.44,1.44,0,0,1-.123-.586,1.467,1.467,0,1,1,1.762,1.434l2.132,1.1a1.466,1.466,0,0,1,2.521,1.305l12.935,6.7a1.467,1.467,0,1,1,2.324,1.2l16.478,8.529a1.482,1.482,0,0,1-.039-.337,1.466,1.466,0,1,1,2.013,1.359l16.1,8.333-8.822-20.32a1.465,1.465,0,1,1-.81-1.865l-5.941-13.684a1.465,1.465,0,0,1-1.164-2.681l-6.526-15.031a1.466,1.466,0,0,1-.681-1.568L142.3,35.089a1.465,1.465,0,1,1-.848-1.952l-4.62-10.64a1.468,1.468,0,0,1-1.067-2.458L127.063,0Zm-7.219,3.734a1.466,1.466,0,1,1,1.464-1.467A1.469,1.469,0,0,1,119.844,3.734Zm-25.8,2.93A1.465,1.465,0,1,1,95.513,5.2,1.466,1.466,0,0,1,94.046,6.665Zm-9.382,0A1.465,1.465,0,1,1,86.132,5.2,1.466,1.466,0,0,1,84.664,6.665ZM68.836,8.425A1.466,1.466,0,1,1,70.3,6.958,1.468,1.468,0,0,1,68.836,8.425Zm46.9,0A1.465,1.465,0,1,1,117.2,6.958,1.468,1.468,0,0,1,115.74,8.425Zm-38.11.584A1.465,1.465,0,1,1,79.1,7.545,1.467,1.467,0,0,1,77.63,9.009Zm46.9,0A1.465,1.465,0,1,1,126,7.545,1.469,1.469,0,0,1,124.535,9.012Zm-18.76.583a1.465,1.465,0,1,1,1.464-1.464A1.469,1.469,0,0,1,105.775,9.6ZM53.005,10.769a1.465,1.465,0,1,1,1.467-1.464A1.467,1.467,0,0,1,53.005,10.769Zm-25.21,0A1.466,1.466,0,1,1,29.259,9.3,1.47,1.47,0,0,1,27.8,10.772Zm-8.209,0A1.466,1.466,0,1,1,21.051,9.3,1.469,1.469,0,0,1,19.587,10.772Zm17.591,0A1.466,1.466,0,1,1,38.64,9.3,1.469,1.469,0,0,1,37.177,10.771Zm61.56,1.172a1.465,1.465,0,1,1,1.464-1.464A1.467,1.467,0,0,1,98.737,11.942Zm-9.379,0a1.465,1.465,0,1,1,1.465-1.464A1.468,1.468,0,0,1,89.358,11.942Zm-26.971,0a1.465,1.465,0,1,1,1.463-1.464A1.467,1.467,0,0,1,62.388,11.942Zm-15.83.587a1.465,1.465,0,1,1,1.464-1.467A1.468,1.468,0,0,1,46.558,12.529Zm81.5.587a1.465,1.465,0,1,1,1.463-1.467A1.469,1.469,0,0,1,128.053,13.116ZM73.526,13.7a1.465,1.465,0,1,1,1.467-1.464A1.467,1.467,0,0,1,73.526,13.7Zm46.9,0a1.466,1.466,0,1,1,1.467-1.467A1.469,1.469,0,0,1,120.431,13.7Zm-38.109.584a1.466,1.466,0,1,1,1.464-1.464A1.467,1.467,0,0,1,82.321,14.287Zm27.557,0a1.465,1.465,0,1,1,1.462-1.466A1.468,1.468,0,0,1,109.878,14.289ZM14.9,14.876a1.467,1.467,0,1,1,1.467-1.467A1.468,1.468,0,0,1,14.9,14.876Zm42.213.584a1.466,1.466,0,1,1,1.465-1.467A1.468,1.468,0,0,1,57.11,15.46Zm-24.625.587a1.466,1.466,0,1,1,1.467-1.467A1.467,1.467,0,0,1,32.485,16.047Zm-8.207,0a1.466,1.466,0,1,1,1.465-1.467A1.468,1.468,0,0,1,24.278,16.047Zm17.588,0a1.466,1.466,0,1,1,1.466-1.467A1.468,1.468,0,0,1,41.866,16.047Zm60.974.586a1.465,1.465,0,1,1,1.465-1.467A1.468,1.468,0,0,1,102.84,16.633Zm-9.378,0a1.465,1.465,0,1,1,1.461-1.467A1.47,1.47,0,0,1,93.463,16.633Zm-26.971,0a1.465,1.465,0,1,1,1.464-1.467A1.468,1.468,0,0,1,66.491,16.633Zm57.457,1.174a1.466,1.466,0,1,1,1.463-1.467A1.469,1.469,0,0,1,123.949,17.807Zm-72.7,0a1.466,1.466,0,1,1,1.467-1.467A1.467,1.467,0,0,1,51.245,17.807Zm81.494.586a1.465,1.465,0,1,1,1.466-1.467A1.467,1.467,0,0,1,132.74,18.393Zm-55.11,0a1.465,1.465,0,1,1,1.464-1.467A1.469,1.469,0,0,1,77.63,18.393Zm8.794.587a1.467,1.467,0,1,1,1.464-1.467A1.468,1.468,0,0,1,86.425,18.98Zm28.142.583a1.465,1.465,0,1,1,1.467-1.466A1.466,1.466,0,0,1,114.566,19.564Zm-69.182.587a1.466,1.466,0,1,1,1.463-1.466A1.468,1.468,0,0,1,45.385,20.151Zm-9.382,0a1.466,1.466,0,1,1,1.465-1.467A1.469,1.469,0,0,1,36,20.151Zm-8.208,0a1.466,1.466,0,1,1,1.464-1.467A1.469,1.469,0,0,1,27.8,20.151Zm34.006.586a1.465,1.465,0,1,1,1.467-1.466A1.468,1.468,0,0,1,61.8,20.737Zm45.731,1.174A1.465,1.465,0,1,1,109,20.444,1.468,1.468,0,0,1,107.532,21.911Zm-9.382,0a1.465,1.465,0,1,1,1.467-1.467A1.467,1.467,0,0,1,98.15,21.911Zm-26.971,0a1.465,1.465,0,1,1,1.469-1.467A1.467,1.467,0,0,1,71.18,21.911Zm-16.414,0a1.465,1.465,0,1,1,1.465-1.467A1.468,1.468,0,0,1,54.765,21.911Zm73.87,1.173a1.466,1.466,0,1,1,1.467-1.466A1.467,1.467,0,0,1,128.635,23.084Zm-10.549.584a1.466,1.466,0,1,1,1.461-1.467A1.469,1.469,0,0,1,118.087,23.668Zm-35.766,0A1.466,1.466,0,1,1,83.787,22.2,1.467,1.467,0,0,1,82.321,23.668Zm8.794.587a1.465,1.465,0,1,1,1.467-1.466A1.468,1.468,0,0,1,91.116,24.255Zm-25.8.586a1.465,1.465,0,1,1,1.464-1.467A1.469,1.469,0,0,1,65.318,24.841Zm-15.245.587a1.465,1.465,0,1,1,1.467-1.466A1.467,1.467,0,0,1,50.073,25.428Zm-9.382,0a1.465,1.465,0,1,1,1.467-1.466A1.465,1.465,0,0,1,40.691,25.428Zm70.358.587a1.466,1.466,0,1,1,1.465-1.467A1.469,1.469,0,0,1,111.049,26.015Zm-9.379,0a1.466,1.466,0,1,1,1.461-1.467A1.47,1.47,0,0,1,101.67,26.015Zm-26.971,0a1.466,1.466,0,1,1,1.463-1.467A1.469,1.469,0,0,1,74.7,26.015Zm58.04,1.17a1.465,1.465,0,1,1,1.466-1.466A1.467,1.467,0,0,1,132.74,27.185Zm-73.286,0a1.466,1.466,0,1,1,1.467-1.467A1.467,1.467,0,0,1,59.453,27.188Zm26.385.584A1.466,1.466,0,1,1,87.3,26.305,1.469,1.469,0,0,1,85.838,27.772Zm8.794.586A1.465,1.465,0,1,1,96.1,26.892,1.468,1.468,0,0,1,94.633,28.358Zm28.142.587a1.465,1.465,0,1,1,1.467-1.467A1.468,1.468,0,0,1,122.774,28.945Zm-68.6.586a1.465,1.465,0,1,1,1.467-1.466A1.466,1.466,0,0,1,54.177,29.531Zm-9.382,0a1.465,1.465,0,1,1,1.467-1.467A1.465,1.465,0,0,1,44.8,29.532Zm25.211.587a1.466,1.466,0,1,1,1.467-1.467A1.466,1.466,0,0,1,70.006,30.119Zm-6.448,1.17a1.466,1.466,0,1,1,1.467-1.467A1.467,1.467,0,0,1,63.558,31.289Zm52.179,0a1.466,1.466,0,1,1,1.467-1.467A1.466,1.466,0,0,1,115.736,31.292Zm-9.378,0a1.466,1.466,0,1,1,1.467-1.467A1.467,1.467,0,0,1,106.358,31.292Zm-26.97,0a1.466,1.466,0,1,1,1.467-1.467A1.468,1.468,0,0,1,79.388,31.292Zm58.045,1.17A1.465,1.465,0,1,1,138.9,31,1.47,1.47,0,0,1,137.433,32.462Zm-10.554.586a1.465,1.465,0,1,1,1.467-1.466A1.467,1.467,0,0,1,126.879,33.049Zm-36.353,0a1.465,1.465,0,1,1,1.467-1.466A1.465,1.465,0,0,1,90.526,33.049Zm8.794.587a1.466,1.466,0,1,1,1.467-1.467A1.467,1.467,0,0,1,99.32,33.636Zm-25.21.586a1.465,1.465,0,1,1,1.467-1.466A1.466,1.466,0,0,1,74.11,34.223Zm-15.241.585a1.465,1.465,0,1,1,1.467-1.466A1.468,1.468,0,0,1,58.869,34.808Zm60.972.586a1.466,1.466,0,1,1,1.467-1.467A1.466,1.466,0,0,1,119.841,35.394Zm-9.378,0a1.466,1.466,0,1,1,1.467-1.467A1.467,1.467,0,0,1,110.462,35.394ZM68.249,36.567A1.465,1.465,0,1,1,69.715,35.1,1.468,1.468,0,0,1,68.249,36.567Zm26.381.587A1.465,1.465,0,1,1,96.1,35.687,1.466,1.466,0,0,1,94.63,37.153Zm8.794.587a1.466,1.466,0,1,1,1.467-1.467A1.467,1.467,0,0,1,103.425,37.741Zm-41.037.587a1.467,1.467,0,1,1,1.464-1.467A1.469,1.469,0,0,1,62.388,38.327Zm69.181,0a1.465,1.465,0,1,1,1.467-1.466A1.468,1.468,0,0,1,131.569,38.326ZM78.8,39.5a1.465,1.465,0,1,1,1.467-1.464A1.467,1.467,0,0,1,78.8,39.5Zm-7.034.59a1.467,1.467,0,1,1,1.463-1.467A1.468,1.468,0,0,1,71.77,40.087Zm52.765.583A1.465,1.465,0,1,1,126,39.2,1.468,1.468,0,0,1,124.535,40.67Zm-9.382,0A1.465,1.465,0,1,1,116.62,39.2,1.468,1.468,0,0,1,115.152,40.67Zm-26.971,0A1.465,1.465,0,1,1,89.649,39.2,1.468,1.468,0,0,1,88.182,40.67Zm46.9,1.174a1.467,1.467,0,1,1,1.467-1.466A1.468,1.468,0,0,1,135.087,41.844Zm-35.763.586a1.465,1.465,0,1,1,1.467-1.466A1.468,1.468,0,0,1,99.324,42.431Zm8.794.587a1.466,1.466,0,1,1,1.467-1.466A1.468,1.468,0,0,1,108.118,43.017Zm-25.8,0a1.466,1.466,0,1,1,1.464-1.466A1.468,1.468,0,0,1,82.321,43.017Zm45.732,1.173a1.466,1.466,0,1,1,1.463-1.466A1.469,1.469,0,0,1,128.053,44.19Zm-9.382,0a1.466,1.466,0,1,1,1.467-1.466A1.469,1.469,0,0,1,118.671,44.19Zm-26.969,0a1.466,1.466,0,1,1,1.465-1.466A1.468,1.468,0,0,1,91.7,44.19ZM76.457,45.362a1.466,1.466,0,1,1,1.466-1.467A1.469,1.469,0,0,1,76.457,45.362Zm26.383.587a1.467,1.467,0,1,1,1.465-1.467A1.468,1.468,0,0,1,102.84,45.948Zm8.8.587a1.467,1.467,0,1,1,1.463-1.466A1.469,1.469,0,0,1,111.636,46.535Zm28.142.587a1.467,1.467,0,1,1,1.466-1.467A1.469,1.469,0,0,1,139.778,47.121ZM87.012,48.295a1.466,1.466,0,1,1,1.466-1.466A1.469,1.469,0,0,1,87.012,48.295Zm-7.624,0a1.466,1.466,0,1,1,1.467-1.469A1.469,1.469,0,0,1,79.388,48.295Zm53.355,1.171A1.465,1.465,0,1,1,134.21,48,1.469,1.469,0,0,1,132.743,49.465Zm-9.382,0A1.465,1.465,0,1,1,124.828,48,1.469,1.469,0,0,1,123.361,49.465Zm-26.971,0A1.465,1.465,0,1,1,97.857,48,1.469,1.469,0,0,1,96.39,49.465Zm46.318.587a1.466,1.466,0,1,1,1.467-1.467A1.467,1.467,0,0,1,142.708,50.053Zm-35.176,1.173A1.467,1.467,0,1,1,109,49.759,1.468,1.468,0,0,1,107.532,51.226Zm-17.589,0a1.466,1.466,0,1,1,1.466-1.467A1.467,1.467,0,0,1,89.942,51.226Zm26.384.587a1.467,1.467,0,1,1,1.467-1.467A1.468,1.468,0,0,1,116.326,51.812Zm19.347.587a1.467,1.467,0,1,1,1.467-1.47A1.468,1.468,0,0,1,135.673,52.4Zm-9.381,0a1.467,1.467,0,1,1,1.466-1.47A1.468,1.468,0,0,1,126.292,52.4Zm-26.972,0a1.467,1.467,0,1,1,1.467-1.47A1.468,1.468,0,0,1,99.32,52.4Zm11.142,1.757a1.465,1.465,0,1,1,1.467-1.466A1.467,1.467,0,0,1,110.462,54.156Zm8.792.587a1.465,1.465,0,1,1,1.47-1.467A1.466,1.466,0,0,1,119.254,54.743Zm28.144.587a1.467,1.467,0,1,1,1.464-1.467A1.468,1.468,0,0,1,147.4,55.329Zm-7.036,2.345a1.467,1.467,0,1,1,1.465-1.467A1.468,1.468,0,0,1,140.363,57.674Zm-9.38,0a1.467,1.467,0,1,1,1.463-1.467A1.469,1.469,0,0,1,130.983,57.674Zm-26.969,0a1.467,1.467,0,1,1,1.463-1.467A1.469,1.469,0,0,1,104.014,57.674Zm11.138,1.76a1.467,1.467,0,1,1,1.465-1.467A1.468,1.468,0,0,1,115.152,59.434Zm8.8.587a1.467,1.467,0,1,1,1.463-1.466A1.469,1.469,0,0,1,123.949,60.02Zm21.1,1.171a1.466,1.466,0,1,1,1.467-1.464A1.465,1.465,0,0,1,145.052,61.191Zm-9.378,0a1.466,1.466,0,1,1,1.467-1.464A1.465,1.465,0,0,1,135.673,61.191Zm-26.97,0a1.466,1.466,0,1,1,1.466-1.464A1.466,1.466,0,0,1,108.7,61.191Zm11.138,1.757a1.465,1.465,0,1,1,1.467-1.464A1.464,1.464,0,0,1,119.841,62.948Zm8.794.587a1.465,1.465,0,1,1,1.467-1.464A1.465,1.465,0,0,1,128.635,63.535Zm21.11,2.933A1.465,1.465,0,1,1,151.21,65,1.468,1.468,0,0,1,149.745,66.468Zm-9.382,0A1.465,1.465,0,1,1,141.828,65,1.466,1.466,0,0,1,140.363,66.468Zm-15.828,1.757A1.465,1.465,0,1,1,126,66.762,1.467,1.467,0,0,1,124.535,68.226Zm8.794.586a1.465,1.465,0,1,1,1.464-1.464A1.469,1.469,0,0,1,133.329,68.812Zm19.93,1.174a1.466,1.466,0,1,1,1.467-1.467A1.467,1.467,0,0,1,153.26,69.986Zm-9.379,0a1.466,1.466,0,1,1,1.467-1.467A1.468,1.468,0,0,1,143.881,69.986Zm-15.832,1.76a1.465,1.465,0,1,1,1.467-1.467A1.467,1.467,0,0,1,128.049,71.746Zm8.794.587a1.467,1.467,0,1,1,1.467-1.47A1.468,1.468,0,0,1,136.843,72.332Zm11.729,2.93a1.465,1.465,0,1,1,1.467-1.466A1.468,1.468,0,0,1,148.572,75.263Zm-7.035,2.345A1.466,1.466,0,1,1,143,76.14,1.47,1.47,0,0,1,141.537,77.607Zm11.138,1.76a1.465,1.465,0,1,1,1.467-1.466A1.468,1.468,0,0,1,152.676,79.367Zm-5.86,2.344a1.465,1.465,0,1,1,1.461-1.466A1.468,1.468,0,0,1,146.815,81.711Zm9.965,1.76A1.466,1.466,0,1,1,158.247,82,1.467,1.467,0,0,1,156.78,83.471Zm2.931,5.277a1.467,1.467,0,1,1,1.466-1.467A1.467,1.467,0,0,1,159.711,88.749Zm4.691,2.931a1.465,1.465,0,1,1,1.463-1.464A1.467,1.467,0,0,1,164.4,91.679Z" transform="translate(204.588 174.933) rotate(180)" fill="#fff"/>
  </g>
</svg>
